<svg xmlns="http://www.w3.org/2000/svg" viewBox="0 0 376.9 172.3" width="377" height="172">
  <!-- Birdham mark — filled seabird silhouette, single colour ink. Vectorised from Billy's drawing. -->
  <path fill="#F3EDDF" d="M376.89 0.00 C370.41 0.45 352.65 2.39 338.00 2.71 C323.35 3.03 306.67 0.64 289.00 1.91 C271.33 3.18 246.00 5.74 232.00 10.31 C218.00 14.88 212.63 21.60 205.00 29.31 C197.37 37.03 189.32 52.05 186.19 56.60 L181.18 53.29 C159.71 39.10 128.14 29.69 76.62 22.12 C62.61 20.06 49.93 19.00 39.55 19.02 C30.08 19.02 27.68 19.26 20.37 20.92 C12.32 22.77 1.55 27.65 0.74 29.83 C0.00 31.77 1.91 32.51 10.59 33.64 C22.60 35.18 35.13 35.85 47.14 35.59 C65.68 35.18 81.71 37.06 89.23 40.51 C105.97 48.20 119.42 57.20 128.71 70.97 L131.64 75.32 L129.45 77.54 L127.22 79.77 L116.77 79.98 C94.24 80.40 84.11 84.04 73.61 95.42 C63.27 106.41 62.23 107.23 53.86 111.65 C50.60 115.00 45.40 119.40 43.60 123.40 C46.40 125.20 51.00 124.30 56.00 123.40 C58.17 122.04 65.62 120.33 73.25 119.46 C86.71 117.81 96.82 119.30 117.37 124.60 C147.10 130.31 163.06 132.23 186.24 131.92 C200.04 132.87 212.20 131.34 232.27 129.50 C248.99 128.37 252.99 128.26 259.38 128.91 C263.59 129.36 270.91 131.09 275.75 132.88 C295.77 141.10 312.05 154.47 322.39 168.47 C325.48 172.35 324.99 170.66 321.07 163.73 C316.05 154.87 310.04 146.85 302.58 140.14 C298.45 136.68 295.20 134.50 286.34 129.59 C272.72 122.79 266.48 119.22 256.21 112.29 C253.53 110.65 249.15 108.04 246.50 106.53 C243.84 105.06 239.63 103.01 237.13 101.97 C233.34 100.46 232.30 99.95 231.01 98.69 L229.45 96.68 L231.11 94.45 C234.09 90.43 240.35 79.17 249.00 70.31 C257.65 61.45 271.00 49.31 283.00 41.31 C295.00 33.31 309.17 27.48 321.00 22.31 C332.83 17.14 344.69 14.03 354.00 10.31 C363.31 6.59 373.07 1.72 376.89 0.00 Z"/>
</svg>
