<svg xmlns="http://www.w3.org/2000/svg" viewBox="0 0 600 360"><path d="M127.8,343.1c-1.8-0.4-3.3-1.1-4.5-2s-2.1-2-2.8-3.4c-1.1-2.4-1.6-5-1.3-7.8c0.2-2.8,1.2-6,2.8-9.6
	c1.8-3.9,3.7-7,6.8-10.3c3.1-3.3,7.4-6.9,13.7-11.6c2.2-1.6,4.7-3.6,7.1-5.5c2.4-1.9,4.6-3.6,6-4.8c3.6-2.9,5.8-4.6,7.9-5.7
	c2.1-1,3.9-1.3,6.5-1.4c1.8-0.1,3.1-0.1,4.8,0.2c1.7,0.2,3.8,0.7,7.2,1.5c2.1,0.5,4.6,1,6.8,1.5s4.2,0.8,5.4,0.9
	c3,0.4,6.8,0.4,10.5,0.3c3.7-0.2,7.1-0.6,9.5-1.2c5.8-1.5,11.1-4.2,16.4-8.4c5.2-4.1,10.4-9.7,15.7-17c3.1-4.2,5.7-7.6,8-10.3
	c2.3-2.7,4.2-4.8,6-6.4c1.2-1.1,1.8-1.7,2.1-2.1s0.1-0.7-0.2-1c-0.3-0.3-0.6-0.5-1.3-0.4c-0.7,0.1-1.9,0.4-3.9,0.9
	c-4.6,1.3-9.5,2.9-15.8,5.3c-6.3,2.4-14.1,5.7-24.7,10.3c-5.9,2.5-11.7,4.9-16.9,6.9c-5.2,2-9.6,3.6-12.7,4.5
	c-8.8,2.5-18.3,4-27.4,4.3c-9.2,0.3-18-0.5-25.5-2.4c-14.2-3.8-26.1-11.6-34.3-21.6s-12.7-22.4-12-35.2c0.3-5.6,1.8-11.1,4.1-16
	c2.3-4.9,5.6-9.3,9.4-12.4c3.1-2.6,6.7-4.5,10.5-5.8c3.8-1.3,7.9-1.8,12.1-1.6c5,0.2,8.8,1.3,11.3,3.1s3.9,4.4,3.9,7.7
	c0,2-0.4,3.7-1.2,5c-0.9,1.3-2.2,2.3-4,3.1c-1.1,0.5-2.4,0.7-4,0.7c-1.6,0-3.5-0.2-5.7-0.7c-1.1-0.2-2.1-0.4-3.1-0.5s-1.8-0.1-2.3,0
	c-1.4,0.2-2.9,0.8-4.4,1.7s-3,2.1-4.4,3.6c-2.3,2.4-3.8,4.7-4.7,7.3c-0.9,2.6-1.2,5.6-1,9.2c0.2,3.9,1,7.6,2.4,11.2
	c1.4,3.6,3.4,7.1,6,10.7c4.4,5.9,10.1,10.5,16.9,13.7c6.8,3.2,14.8,5.1,23.8,5.6c8.2,0.4,16.1-0.4,25.7-2.9
	c9.7-2.5,21.1-6.7,36.4-13.2c7.8-3.3,14.5-6,20.6-8.2c6.1-2.2,11.7-3.9,17-5.3c5.8-1.5,10.5-2.5,15.4-3.2c4.9-0.7,10.1-1,16.7-1.2
	c15-0.4,26.8-1.5,36.9-3.4s18.5-4.7,26.6-8.7c8.5-4.2,16.5-9.6,23.4-15.7s12.9-13.2,17.4-20.5c1.9-3.1,3.4-5.9,4.9-9.2
	c1.5-3.3,2.9-7,4.5-11.7c1.8-5.2,4-8.3,5.4-11.2c1.4-2.9,3.6-5.8,5.7-8.9c2.5-3.8,5.6-8.5,7.9-11.8c2.8-3.9,5.3-6.4,7.4-13.3
	c1.7-5.8,1.3-3.3,1.3-8.1c0.1-5.6-0.8-9.9-0.7-14.9l1.5-8l1.2-3.6l-0.9-0.9l-0.9-0.9c-1.2-1.2-2.3-2.7-3-4.3s-1.2-3.4-1.4-5.2
	c-0.1-1.2-0.1-2.1,0-2.9s0.4-1.5,0.9-2.6c1-2.1,2.3-3.6,4.3-4.5c2-1,4.8-1.4,8.7-1.6l2.5-0.1l2.6-0.1l2.4-1.7l2.4-1.7
	c2.8-2,6.1-4,9.5-5.7c3.3-1.7,6.7-3.1,9.5-3.9c1.8-0.5,3-0.9,4.5-1c1.5-0.2,3.2-0.2,6-0.2l3.2,0l3.2,0l2.1,0.9l2.1,0.9
	c3.8,1.6,6.1,2.6,8.4,3.3s4.4,1.1,7.5,1.6c3.3,0.5,5.8,1,7.7,1.7c1.9,0.6,3.2,1.4,4,2.2c1,1,1.5,2.1,2,3.9c0.4,1.9,0.5,8.6,0,12.9
	c-1,8.6,1.2,10.5,0,14.2c-1.1,3.7-4,5.4-8.7,7.3c-4.5,1.8-7.7,3.5-10.2,5.4c-2.5,1.9-10,8.6-11.8,11.5c-3.3,4.5-5.4,9.6-6.2,16.1
	c-0.8,6.8,0.1,9.8,3,15.9c0.9,1.9,1.8,3.9,2.7,6.9c0.8,2.7,2.1,6.6,2.5,9.1c1.7,10,2.7,16.7,3.1,22.2c0.4,5.5,0.2,9.6-0.4,14.6
	c-0.8,6-1.9,11.4-3.7,17.1c-1.8,5.6-4.2,11.5-7.6,18.6c-2.6,5.4-4.4,9.5-5.7,13.2s-2.3,7.1-3.1,11.1c-1.7,8.3-3.6,21.4-5,33.6
	c-1.4,12.2-2.3,23.6-2.1,28.3c0.1,2.5,0.4,4.4,0.8,5.9c0.5,1.5,1.1,2.6,2.1,3.6c0.6,0.6,1.1,1,2.2,1.4c1.1,0.4,2.9,0.8,6,1.6
	c2,0.4,3.8,1.2,5.4,2c1.6,0.9,2.9,1.9,3.7,3c1.3,1.8,2.3,4.4,2.7,7.1c0.4,2.7,0.4,5.4-0.4,7.2c-0.6,1.5-1.2,2.3-3.4,2.8
	c-2.2,0.4-6.2,0.5-13.7,0.6c-5.6,0.1-9,0.1-11.4,0c-2.4-0.1-3.7-0.3-4.9-0.6c-2.6-0.7-4.4-1.5-5.9-3.1c-1.5-1.6-2.7-3.9-4.2-7.7
	c-0.5-1.3-1.3-2.9-2-4.3c-0.7-1.4-1.4-2.6-2-3.4c-1.9-2.7-2.9-4-3.3-6c-0.4-1.9-0.4-4.4-0.2-9.3c0.2-6,0-13.3-0.5-20.7
	c-0.5-7.4-1.4-14.9-2.5-21.4c-0.6-3.4-0.9-5.1-1.6-5.6s-1.6,0.1-3.3,1.5c-6.9,5.8-15.4,11-24.8,15.4c-9.4,4.4-19.6,7.9-30,10.2
	c-4.1,0.9-7.5,1.5-11.4,2c-3.9,0.5-8.3,0.9-14.4,1.3c-12.2,0.8-20.5,1.8-28.2,4.2c-7.7,2.3-14.9,6-24.9,11.9
	c-6.6,3.9-12,6.8-17.1,8.9s-9.7,3.6-14.6,4.6c-8,1.6-15.9,2.1-24.9,1.5c-8.9-0.7-18.9-2.5-30.8-5.6c-11.2-2.9-19.3-4.3-26.1-4.3
	c-6.8,0-12.3,1.6-18.3,4.6c-2,1-3.7,2-5.2,3c-1.5,1-2.9,2.1-4.2,3.3l-1,0.9l-1,0.9l0.8,1.3l0.8,1.3c0.4,0.7,0.9,1.7,1.2,2.6
	c0.4,1,0.7,2,0.8,2.8c0.5,2.6,0.3,4.7-0.5,6.2c-0.8,1.6-2.2,2.7-4.3,3.2c-1.4,0.4-5.8,0.5-10.3,0.5
	C133.8,343.6,129.3,343.4,127.8,343.1z M149.9,340.1c4.3-4.1-0.6-10.5-3.5-14.3c31.9-32.9,71.9,2.1,110.5-5.4
	c19.9-2.2,41.8-20.7,60.1-26.2c11.9-4,37.1-3.9,49.8-6.6c22.9-4.2,46.7-15,63.5-31c-8.2-24.7-3.4-13.1-1.6-36.7
	c1.1,5.3-0.8,13.9-1.6,19.7c1.9,7.1,5.4,16.9,6.7,23.7c3,14.4,3.6,40.1,3.1,54.3c4.7,5.9,7.3,14.7,11.5,20.5
	c5.4,5.2,8.2,2.5,19.1,3.1c3.4,0,10.5,0,13.9,0c5.2-3.1,2.2-11.1-1.4-14.5c-3.4-4.1-12.5-3.3-16.3-6.9c-7.8-12.3,1.9-59.2,4.4-75.5
	c5.9-24.1,22.6-44.6,20-70.4c0.1-10-4.3-29.5-7-35.7c-6.3-11-6.7-24.1,0.2-35.2c5.9-7.8,13.6-14.4,22.7-19.2
	c4.7-2.1,8.9-4.1,10.4-8.4c0.6-4.7-0.7-11.8,0-18.3c0.5-8.4-4.1-10.7-11.8-11.6c-7.7-0.7-14.1-3.9-20.6-6.4
	c-12.6-3.1-26.4,4.7-36.4,12c-0.8,0.8,0.2,1.1-1.3,1.3c-3.9,0.6-11.7,0.7-14.2,2.2c-12.8,6.4,1.8,19.8,10.3,21.9
	c0.8,0,0.1,0.3-0.4,0.5c-2.2,0.9-5.6-0.7-7.9-1.2c-6.1,6.6-1.9,18.2-3.1,27.2c-0.8,7.4-6.1,17-9.4,21.4c-3.9,5.1-8.7,13.1-12.3,18.6
	c-6.8,10.6-9.5,25.5-16.9,35.5c-30.4,45-74.3,45.3-122.8,48.2c-36,4.7-73.3,32.7-110.3,32.4c-19.4,0.1-37-5.5-48.1-21.7
	c-9.5-13.1-12.1-37,5.2-44.3c5.2-2.9,12.6,0.5,17.6-0.4c4-0.9,6.1-6.1,3.5-9.4c-13.8-14-38,1-43.1,17.3c-5.3,14.4-1.3,31.4,8.4,43.6
	c19.4,25.3,54.4,29.3,83.8,20.7c28.7-8.5,62.8-29.5,91.3-31c-22.9,13.3-32.6,46.1-60.5,52.7c-6.7,1.9-16.3,1.4-23.3,0.7
	c-7.9-0.3-21.3-7.7-28.7-1.1c-11.1,9.2-28,19.8-36.3,31c-13.3,22.9,0.6,26,21,25.2C148.7,341.7,149.5,340.6,149.9,340.1z" fill="#1A1A1A" fill-rule="evenodd"/></svg>