<svg width="32" height="32" viewBox="0 0 32 32" fill="none" xmlns="http://www.w3.org/2000/svg">
  <rect width="32" height="32" rx="6" fill="#0F1923"/>
  <!-- Lamp housing -->
  <rect x="13" y="7" width="6" height="4" rx="0.5" fill="#E2864B"/>
  <circle cx="16" cy="9" r="1" fill="#FFECD2" opacity="0.8"/>
  <!-- Cap -->
  <path d="M13.5 7L16 4L18.5 7" stroke="#E2864B" stroke-width="1.2" stroke-linecap="round" stroke-linejoin="round"/>
  <line x1="16" y1="4" x2="16" y2="2.5" stroke="#E2864B" stroke-width="0.8" stroke-linecap="round"/>
  <!-- Gallery rail -->
  <line x1="12" y1="7" x2="20" y2="7" stroke="#E2864B" stroke-width="0.8" stroke-linecap="round"/>
  <!-- Tower -->
  <path d="M13 11L12 27H20L19 11Z" fill="none" stroke="#E2864B" stroke-width="1.2" stroke-linejoin="round"/>
  <!-- Stripes -->
  <line x1="12.7" y1="15" x2="19.3" y2="15" stroke="#E2864B" stroke-width="0.5" opacity="0.4"/>
  <line x1="12.4" y1="19" x2="19.6" y2="19" stroke="#E2864B" stroke-width="0.5" opacity="0.4"/>
  <line x1="12.2" y1="23" x2="19.8" y2="23" stroke="#E2864B" stroke-width="0.5" opacity="0.4"/>
  <!-- Window -->
  <rect x="15" y="16" width="2" height="2.5" rx="1" fill="#E2864B" opacity="0.3"/>
  <!-- Base -->
  <line x1="10" y1="27" x2="22" y2="27" stroke="#E2864B" stroke-width="1.5" stroke-linecap="round"/>
  <!-- Light beams -->
  <path d="M16 7L8 2" stroke="#E8A85C" stroke-width="0.5" opacity="0.2"/>
  <path d="M16 7L24 2" stroke="#E8A85C" stroke-width="0.5" opacity="0.2"/>
</svg>
