<svg width="1600" height="1000" xmlns="http://www.w3.org/2000/svg">
  <defs>
    <linearGradient id="bg" x1="0%" y1="0%" x2="100%" y2="100%">
      <stop offset="0%" style="stop-color:#faf8f5"/>
      <stop offset="50%" style="stop-color:#f0ece6"/>
      <stop offset="100%" style="stop-color:#faf8f5"/>
    </linearGradient>
    <linearGradient id="accent" x1="0%" y1="0%" x2="0%" y2="100%">
      <stop offset="0%" style="stop-color:#c4a882;stop-opacity:0.1"/>
      <stop offset="100%" style="stop-color:#c4a882;stop-opacity:0"/>
    </linearGradient>
    <radialGradient id="glow" cx="70%" cy="50%" r="40%">
      <stop offset="0%" style="stop-color:#e8ddd0;stop-opacity:0.5"/>
      <stop offset="100%" style="stop-color:#faf8f5;stop-opacity:0"/>
    </radialGradient>
  </defs>
  <rect width="1600" height="1000" fill="url(#bg)"/>
  <rect width="1600" height="1000" fill="url(#glow)"/>
  <rect width="1600" height="1000" fill="url(#accent)"/>
  <!-- Abstract nav bar -->
  <rect x="80" y="40" width="100" height="8" rx="4" fill="#2a2520" opacity="0.15"/>
  <rect x="1200" y="40" width="50" height="8" rx="4" fill="#2a2520" opacity="0.08"/>
  <rect x="1300" y="40" width="50" height="8" rx="4" fill="#2a2520" opacity="0.08"/>
  <rect x="1400" y="40" width="80" height="8" rx="4" fill="#2a2520" opacity="0.08"/>
  <!-- Left side abstract image -->
  <rect x="80" y="150" width="650" height="700" rx="8" fill="#e8ddd0" opacity="0.5"/>
  <circle cx="400" cy="500" r="200" fill="#d4c4b0" opacity="0.3"/>
  <!-- Right side text -->
  <rect x="850" y="350" width="200" height="10" rx="2" fill="#2a2520" opacity="0.08"/>
  <rect x="850" y="390" width="550" height="40" rx="4" fill="#2a2520" opacity="0.1"/>
  <rect x="850" y="450" width="450" height="40" rx="4" fill="#2a2520" opacity="0.08"/>
  <rect x="850" y="530" width="500" height="8" rx="2" fill="#2a2520" opacity="0.05"/>
  <rect x="850" y="550" width="400" height="8" rx="2" fill="#2a2520" opacity="0.05"/>
  <rect x="850" y="570" width="450" height="8" rx="2" fill="#2a2520" opacity="0.05"/>
  <rect x="850" y="630" width="120" height="36" rx="18" fill="#2a2520" opacity="0.08"/>
</svg>
